<svg xmlns="http://www.w3.org/2000/svg" xmlns:xlink="http://www.w3.org/1999/xlink" viewBox="0 0 190.58 160.77"><defs><style>.cls-1{fill:url(#Degradado_sin_nombre_75);}.cls-2{fill:url(#Degradado_sin_nombre_10);}.cls-3{fill:url(#Degradado_sin_nombre_12);}.cls-4{fill:url(#Degradado_sin_nombre_22);}</style><linearGradient id="Degradado_sin_nombre_75" x1="143.25" y1="23.67" x2="190.58" y2="23.67" gradientUnits="userSpaceOnUse"><stop offset="0" stop-color="#f88f33"/><stop offset="1" stop-color="#f85233"/></linearGradient><linearGradient id="Degradado_sin_nombre_10" x1="133.7" y1="45.15" x2="133.7" y2="160.77" gradientUnits="userSpaceOnUse"><stop offset="0" stop-color="#00564b"/><stop offset="0.02" stop-color="#00594b"/><stop offset="0.22" stop-color="#007f4b"/><stop offset="0.42" stop-color="#009a4b"/><stop offset="0.59" stop-color="#00aa4b"/><stop offset="0.72" stop-color="#00b04b"/></linearGradient><linearGradient id="Degradado_sin_nombre_12" x1="24.43" y1="57.88" x2="129.35" y2="57.88" gradientUnits="userSpaceOnUse"><stop offset="0" stop-color="#00564b"/><stop offset="0.13" stop-color="#005f4b"/><stop offset="0.34" stop-color="#00774b"/><stop offset="0.61" stop-color="#009f4b"/><stop offset="0.72" stop-color="#00b04b"/></linearGradient><linearGradient id="Degradado_sin_nombre_22" y1="125.04" x2="114.11" y2="125.04" gradientUnits="userSpaceOnUse"><stop offset="0" stop-color="#00564b"/><stop offset="0.1" stop-color="#00674b"/><stop offset="0.37" stop-color="#008f4b"/><stop offset="0.59" stop-color="#00a74b"/><stop offset="0.72" stop-color="#00b04b"/></linearGradient></defs><g id="Capa_2" data-name="Capa 2"><g id="Capa_1-2" data-name="Capa 1"><circle class="cls-1" cx="166.91" cy="23.67" r="23.67"/><path class="cls-2" d="M178.91,138.22a22.51,22.51,0,0,1-42,11.29l-19.77-34.26L91.43,70.74l-1.85-3.23-1.09-2c1.94-7.24,7.72-11.78,14.72-15.81a33.86,33.86,0,0,1,17.05-4.59,34.41,34.41,0,0,1,9.09,1.23L175.9,127A22.35,22.35,0,0,1,178.91,138.22Z"/><path class="cls-3" d="M129.35,46.38a34.41,34.41,0,0,0-9.09-1.23,33.86,33.86,0,0,0-17.05,4.59c-7,4-13.75,17.57-13.75,17.57l-2,3.43-26,45H46.94a22.52,22.52,0,0,1-22.51-22.5,23.16,23.16,0,0,1,.35-3.93L32.45,76l37.41-64.8A22.41,22.41,0,0,1,86.73.17l.15,0C87.44.09,88,0,88.54,0c.31,0,.61,0,.92,0s.61,0,.92,0c.55,0,1.11.07,1.66.12a.76.76,0,0,0,.16,0,22.45,22.45,0,0,1,16.86,11.07Z"/><path class="cls-4" d="M107.52,122.35a22.45,22.45,0,0,0-15.91-6.6H46.94a22.52,22.52,0,0,1-22.51-22.5,23.16,23.16,0,0,1,.35-3.93L3,127A22.5,22.5,0,0,0,22.5,160.76a15.66,15.66,0,0,0,1.81-.08,16.33,16.33,0,0,0,1.86.08H91.61a22.5,22.5,0,0,0,15.91-38.41Z"/></g></g></svg>